# xmcd CD database file
#
# Track frame offsets:
#	150
#	16570
#	43255
#	86160
#	98105
#	113285
#	150822
#
# Disc length: 2173 seconds
#
# Revision: 0
# Processed by: cddbd v1.5.2PL0 Copyright (c) Steve Scherf et al.
# Submitted via: CDex 1.70beta3
#
DISCID=3c087b07
DTITLE=Lennie Dale - Um Show De Bossa...
DYEAR=1963
DGENRE=Jazz
TTITLE0=Só Danço Samba - Old Devil Moon - O Samba Da Minha Terra - Something Makes Me Wanna Dance With You
TTITLE1=No Dollar Bills - Samba Do Avião
TTITLE2=Perdido - Day In, Day Out - Samba De Uma Nota Só - Improvisação Bossa Três
TTITLE3=Tamanco No Samba
TTITLE4=Corcovado
TTITLE5=Lover - Bim Bom - Dance Bossa Nova - Não Ponha A Mão
TTITLE6=Two Ladies In De Shade Of De Banana Tree
EXTD=YEAR: 1963
EXTT0=
EXTT1=
EXTT2=
EXTT3=
EXTT4=
EXTT5=
EXTT6=
PLAYORDER=
